<svg width="40" height="40" viewBox="0 0 40 40" fill="none" xmlns="http://www.w3.org/2000/svg">
<path d="M35 31.6667V28.9234C35 27.5604 34.1702 26.3347 32.9046 25.8285L29.5144 24.4724C27.9048 23.8286 26.0703 24.526 25.295 26.0766L25 26.6667C25 26.6667 20.8333 25.8333 17.5 22.5C14.1667 19.1667 13.3333 15 13.3333 15L13.9234 14.705C15.474 13.9297 16.1714 12.0952 15.5276 10.4856L14.1715 7.09537C13.6653 5.82984 12.4396 5 11.0766 5H8.33333C6.49238 5 5 6.49238 5 8.33333C5 23.0609 16.9391 35 31.6667 35C33.5076 35 35 33.5076 35 31.6667Z" stroke="#EE7A67" stroke-width="2" stroke-linecap="round" stroke-linejoin="round"/>
</svg>
