<svg width="40" height="40" viewBox="0 0 40 40" fill="none" xmlns="http://www.w3.org/2000/svg">
<ellipse cx="20" cy="27.5007" rx="10" ry="4.16667" stroke="#EE7A67" stroke-width="2" stroke-linejoin="round"/>
<ellipse cx="20" cy="13.334" rx="5" ry="5" stroke="#EE7A67" stroke-width="2" stroke-linejoin="round"/>
<path fill-rule="evenodd" clip-rule="evenodd" d="M10.2596 22.3789C8.41078 22.4987 6.72662 22.8521 5.40288 23.3816C4.57914 23.7111 3.84541 24.1285 3.30126 24.6431C2.755 25.1597 2.3335 25.8433 2.3335 26.6671C2.3335 27.4909 2.755 28.1745 3.30126 28.6911C3.84541 29.2057 4.57914 29.6231 5.40288 29.9526C6.13727 30.2464 6.98259 30.4859 7.9054 30.6614C7.30325 29.9337 6.90258 29.1425 6.74372 28.3106C6.53371 28.2428 6.33407 28.171 6.14566 28.0956C5.46137 27.8219 4.97471 27.521 4.67548 27.238C4.37836 26.957 4.3335 26.7638 4.3335 26.6671C4.3335 26.5704 4.37836 26.3772 4.67548 26.0962C4.97471 25.8132 5.46137 25.5123 6.14566 25.2386C6.56529 25.0707 7.0407 24.9204 7.56215 24.7929C8.18321 23.8908 9.10548 23.0731 10.2596 22.3789Z" fill="#EE7A67"/>
<path fill-rule="evenodd" clip-rule="evenodd" d="M33.2566 28.3106C33.0977 29.1425 32.697 29.9337 32.0949 30.6614C33.0177 30.4859 33.863 30.2464 34.5974 29.9526C35.4211 29.6231 36.1549 29.2057 36.699 28.6911C37.2453 28.1745 37.6668 27.4909 37.6668 26.6671C37.6668 25.8433 37.2453 25.1597 36.699 24.6431C36.1549 24.1285 35.4211 23.7111 34.5974 23.3816C33.2737 22.8521 31.5895 22.4987 29.7407 22.3789C30.8948 23.0731 31.8171 23.8908 32.4381 24.7929C32.9596 24.9205 33.435 25.0707 33.8546 25.2386C34.5389 25.5123 35.0256 25.8132 35.3248 26.0962C35.6219 26.3772 35.6668 26.5704 35.6668 26.6671C35.6668 26.7638 35.6219 26.957 35.3248 27.238C35.0256 27.521 34.5389 27.8219 33.8546 28.0956C33.6662 28.171 33.4666 28.2428 33.2566 28.3106Z" fill="#EE7A67"/>
<path fill-rule="evenodd" clip-rule="evenodd" d="M27.4128 17.144C27.102 17.7474 26.7196 18.308 26.2769 18.8145C26.8888 19.145 27.5892 19.3327 28.3335 19.3327C30.7268 19.3327 32.6669 17.3926 32.6669 14.9993C32.6669 12.6061 30.7268 10.666 28.3335 10.666C28.1888 10.666 28.0458 10.6731 27.9048 10.687C28.1154 11.3166 28.2529 11.9797 28.3073 12.6662C28.316 12.6661 28.3248 12.666 28.3335 12.666C29.6222 12.666 30.6669 13.7107 30.6669 14.9993C30.6669 16.288 29.6222 17.3327 28.3335 17.3327C28.0066 17.3327 27.6953 17.2654 27.4128 17.144Z" fill="#EE7A67"/>
<path fill-rule="evenodd" clip-rule="evenodd" d="M12.0956 10.687C11.9545 10.6731 11.8115 10.666 11.6668 10.666C9.2736 10.666 7.3335 12.6061 7.3335 14.9993C7.3335 17.3926 9.2736 19.3327 11.6668 19.3327C12.4111 19.3327 13.1116 19.145 13.7235 18.8145C13.2808 18.308 12.8984 17.7474 12.5875 17.144C12.305 17.2654 11.9938 17.3327 11.6668 17.3327C10.3782 17.3327 9.3335 16.288 9.3335 14.9993C9.3335 13.7107 10.3782 12.666 11.6668 12.666C11.6756 12.666 11.6844 12.6661 11.6931 12.6662C11.7474 11.9797 11.8849 11.3166 12.0956 10.687Z" fill="#EE7A67"/>
</svg>
