<svg width="165" height="242" viewBox="0 0 165 242" fill="none" xmlns="http://www.w3.org/2000/svg">
<path fill-rule="evenodd" clip-rule="evenodd" d="M27.3442 170.818C28.5526 170.227 30.5494 169.08 33.1191 167.55C39.4011 163.761 48.8918 157.713 58.6673 151.421C77.2597 139.498 96.821 126.776 96.821 126.776C97.3732 126.393 98.1302 126.532 98.5122 127.089C98.8907 127.645 98.7518 128.409 98.1962 128.792C98.1962 128.792 82.0415 140.471 65.2583 152.221C57.4449 157.678 49.4995 163.136 42.9953 167.446C37.0536 171.374 32.2891 174.363 29.9208 175.615C28.8964 176.136 28.1394 176.38 27.7436 176.449C27.049 176.588 26.5281 176.449 26.1774 176.31C25.3787 176.032 22.1457 174.19 18.2563 171.826C11.0055 167.377 1.2509 161.085 1.2509 161.085C0.490393 160.598 0.0215533 159.764 0.000717501 158.86C-0.0201183 157.956 0.413985 157.122 1.15366 156.6C1.15366 156.6 14.1482 147.702 28.9555 137.725C48.3536 124.655 70.8388 109.708 70.8388 109.708C71.391 109.326 72.1514 109.464 72.5334 110.021C72.9189 110.577 72.7835 111.342 72.2314 111.724C72.2314 111.724 50.4545 127.68 31.5078 141.41C21.4893 148.64 12.2626 155.28 7.53979 158.651C11.6931 161.259 18.7599 165.673 23.5729 168.558C25.1912 169.566 26.5211 170.366 27.3442 170.818Z" fill="#EE7A67"/>
<path fill-rule="evenodd" clip-rule="evenodd" d="M74.9784 108.736C74.4471 108.353 74.3532 107.554 74.763 107.032C75.1763 106.511 75.9403 106.407 76.4716 106.824C76.4716 106.824 79.7046 108.492 83.7502 110.926C84.667 111.482 85.5942 112.108 86.5353 112.733C87.1361 113.15 87.7437 113.567 88.3202 114.054C89.7891 115.236 91.1642 116.522 92.4283 117.739C95.8315 121.041 98.2554 123.752 98.2554 123.752C98.7867 124.135 98.884 124.899 98.4707 125.456C98.0575 125.977 97.2935 126.081 96.7622 125.664C96.7622 125.664 93.5361 123.996 89.5217 121.493C88.0285 120.589 86.438 119.581 84.9135 118.434C84.3232 117.982 83.7641 117.495 83.2154 117.043C82.3542 116.279 81.5347 115.549 80.7707 114.784C77.3849 111.482 74.9784 108.736 74.9784 108.736Z" fill="#EE7A67"/>
<path fill-rule="evenodd" clip-rule="evenodd" d="M97.3313 51.7265C96.9771 51.4484 96.352 51.1355 95.8902 50.7879C94.3275 49.6408 92.1293 48.2504 89.7853 46.7904C86.2501 44.6352 82.3712 42.3411 79.6278 40.7768C79.2389 46.6862 78.4958 57.9486 77.6971 69.2459C76.5372 85.6183 75.2662 101.991 75.2662 101.991C75.2315 102.651 74.6619 103.173 73.9882 103.138C73.3181 103.103 72.8007 102.512 72.8319 101.852C72.8319 101.852 73.1688 85.4446 73.6133 69.0375C74.0612 52.6303 74.6168 36.2229 74.6168 36.2229C74.662 35.3191 75.1724 34.4849 75.9676 34.033C76.7629 33.6159 77.7283 33.5812 78.5305 34.033C78.5305 34.033 88.2295 39.2124 95.0081 43.5227C97.3626 45.0175 99.3663 46.4428 100.578 47.4856C101.505 48.2851 102.075 49.0149 102.321 49.5363C102.495 49.8839 102.776 50.927 102.894 52.5956C103.137 56.0369 103.249 63.1626 103.172 71.6096C102.988 92.1881 101.936 120.449 101.936 120.449C101.933 121.144 101.38 121.665 100.71 121.665C100.036 121.665 99.4982 121.109 99.5017 120.449C99.5017 120.449 98.9287 92.1881 98.3036 71.6792C98.0953 64.7965 97.9112 58.8176 97.6612 55.0635C97.5605 53.534 97.3556 51.9003 97.3313 51.7265ZM97.3382 51.7265C97.3591 51.7613 97.4181 51.9348 97.4424 51.9696C97.4702 52.0391 97.4806 52.2129 97.5431 52.1434C97.6821 52.0391 97.5709 51.9003 97.3382 51.7265Z" fill="#EE7A67"/>
<path fill-rule="evenodd" clip-rule="evenodd" d="M16.624 85.0976C16.6275 84.9238 16.617 84.7499 16.624 84.6804C16.6136 84.7847 16.5962 84.9583 16.565 85.1668C16.3288 85.3754 16.2107 85.5147 16.3462 85.619C16.4121 85.6538 16.4608 85.6538 16.499 85.619C15.992 89.1646 14.082 101.226 11.8005 114.54C8.26539 135.223 3.90028 158.999 3.90028 158.999C3.7961 159.66 3.1745 160.112 2.51123 160.008C1.84796 159.903 1.38959 159.278 1.49377 158.617C1.49377 158.617 3.79953 139.985 6.19565 121.318C7.02561 114.818 7.86946 108.353 8.63344 102.652C9.96694 92.745 11.0331 85.2017 11.1095 84.1936C11.1477 83.7069 11.5331 82.5598 12.8319 81.2389C14.6307 79.3966 18.7804 76.0248 24.2116 71.923C30.1116 67.4389 37.5292 62.1206 44.9293 56.9412C60.8131 45.8176 76.558 35.3544 76.558 35.3544C77.1032 34.972 77.8637 35.1112 78.2527 35.6674C78.6416 36.1888 78.5131 36.9533 77.9644 37.3704C77.9644 37.3704 57.5836 52.8739 40.0365 66.3959C30.4381 73.8347 21.6836 80.6134 17.829 84.159C17.4297 84.5066 16.94 84.8543 16.624 85.0976ZM16.624 85.0976C16.6205 85.3409 16.5962 85.5495 16.499 85.619C16.5268 85.4452 16.5476 85.3059 16.565 85.1668C16.5823 85.1321 16.6031 85.1324 16.624 85.0976Z" fill="#EE7A67"/>
<path fill-rule="evenodd" clip-rule="evenodd" d="M50.7497 158.722C51.3192 159.104 51.4893 159.834 51.1317 160.425C50.774 160.981 50.024 161.155 49.4544 160.808L23.1631 145.652C22.3783 145.165 21.9512 144.261 22.0623 143.323C22.0623 143.323 22.7187 135.64 23.9168 125.143C24.3474 121.423 24.8717 117.322 25.4551 113.081C26.2781 107.102 27.2331 100.88 28.136 95.005C30.4105 80.2664 32.4837 67.9261 32.4837 67.9261C32.5636 67.2656 33.1713 66.779 33.838 66.8832C34.5048 66.9528 34.9805 67.5786 34.9007 68.2391C34.9007 68.2391 33.9283 80.7181 32.5774 95.5611C32.0426 101.47 31.4627 107.727 30.8168 113.741C30.3619 117.982 29.8793 122.084 29.3896 125.838C28.3756 133.624 27.4345 139.847 27.0213 142.488L50.7497 158.722Z" fill="#EE7A67"/>
<path fill-rule="evenodd" clip-rule="evenodd" d="M54.2397 51.9711C54.2883 51.2758 54.8717 50.7893 55.5419 50.824C56.2086 50.8935 56.7156 51.4844 56.667 52.1449C56.667 52.1449 56.3891 64.2765 55.8092 78.737C55.5765 84.4726 55.3022 90.5907 54.955 96.4305C54.7119 100.567 54.4272 104.565 54.125 108.215C53.4791 116.001 52.8332 122.188 52.5658 124.691L74.7837 142.767C75.3184 143.184 75.4261 143.949 75.0232 144.47C74.6169 145.027 73.853 145.131 73.3182 144.714L48.6938 127.576C48.0618 127.09 47.7111 126.325 47.7701 125.526C47.7701 125.526 48.0132 118.017 48.6452 107.832C48.8744 104.147 49.1731 100.15 49.5273 96.0483C50.0308 90.2085 50.642 84.125 51.2427 78.3894C52.7568 63.9984 54.2397 51.9711 54.2397 51.9711Z" fill="#EE7A67"/>
<path fill-rule="evenodd" clip-rule="evenodd" d="M7.3209 134.249C6.78264 134.666 6.01869 134.562 5.61587 134.005C5.21304 133.484 5.32067 132.719 5.85546 132.302C5.85546 132.302 16.6971 123.299 29.8062 112.836C35.0256 108.7 40.5887 104.285 45.9956 100.183C49.8155 97.263 53.5729 94.5169 57.0108 92.0141C66.6091 85.0271 73.7592 80.0911 73.7592 80.0911C74.4607 79.5697 75.4156 79.5003 76.1588 79.9869L96.755 93.8913C97.3245 94.2389 97.5016 95.0036 97.1439 95.5598C96.7897 96.1507 96.0396 96.3244 95.47 95.942L75.242 84.332C72.9883 86.1744 67.3591 90.6932 60.2055 96.255C56.8545 98.8968 53.1735 101.712 49.3188 104.598C43.8634 108.665 38.0954 112.766 32.6503 116.625C18.9681 126.323 7.3209 134.249 7.3209 134.249Z" fill="#EE7A67"/>
<path fill-rule="evenodd" clip-rule="evenodd" d="M11.5126 106.439C10.9708 106.822 10.2069 106.718 9.8145 106.161C9.42209 105.605 9.54356 104.84 10.0888 104.458C10.0888 104.458 18.3987 97.8187 29.15 89.5108C35.175 84.8528 41.9362 79.6737 48.43 74.8419C52.0693 72.1653 55.6323 69.593 58.907 67.2987C68.0435 60.8679 74.8671 56.314 74.8671 56.314C75.6138 55.7926 76.6104 55.7581 77.3918 56.2448L101.402 72.5129C101.971 72.8605 102.145 73.6252 101.79 74.1813C101.433 74.7375 100.679 74.9112 100.113 74.5636L76.3812 60.9026C74.1553 62.6059 68.8352 66.7079 62.0914 71.7134C58.8792 74.112 55.3371 76.6842 51.6422 79.2913C45.0408 83.9493 37.9914 88.7463 31.6885 93.0219C20.4372 100.635 11.5126 106.439 11.5126 106.439Z" fill="#EE7A67"/>
<path fill-rule="evenodd" clip-rule="evenodd" d="M20.4682 38.6915C20.4994 37.9962 21.069 37.4747 21.7427 37.5095C22.4129 37.5442 22.9337 38.1352 22.9025 38.7957C22.9025 38.7957 23.2012 43.8706 23.5554 50.9967C23.6804 53.4994 23.8124 56.2457 23.9061 59.1309C23.9686 61.1122 24.0207 63.1631 24.0241 65.214C24.0276 67.2302 23.972 69.2809 23.9339 71.2623C23.8783 74.4603 23.8089 77.5193 23.8297 80.3697C23.854 83.8458 23.9409 86.9047 24.2708 89.338C24.4166 89.9984 23.9998 90.659 23.3435 90.798C22.6872 90.9371 22.0378 90.5199 21.892 89.8594C20.753 86.0704 19.7529 80.5783 19.1347 74.5299C18.7944 71.1929 18.5443 67.6821 18.4714 64.2408C18.4436 62.8504 18.4784 61.4944 18.5201 60.1387C18.586 58.0183 18.6902 55.9677 18.8395 53.9863C19.4993 45.2613 20.4682 38.6915 20.4682 38.6915Z" fill="#EE7A67"/>
<path fill-rule="evenodd" clip-rule="evenodd" d="M123.279 20.1292C123.227 19.4688 123.727 18.8779 124.397 18.8084C125.067 18.7736 125.654 19.2602 125.703 19.9554C125.703 19.9554 127.036 28.4024 128.314 39.4216C128.602 41.9244 128.863 44.5315 129.095 47.2428C129.245 48.9461 129.394 50.6842 129.481 52.457C129.703 56.8716 129.769 61.3559 129.772 65.562C129.786 73.9741 129.443 81.3086 128.991 85.3061C128.956 86.0014 128.38 86.488 127.71 86.4532C127.039 86.4184 126.526 85.8622 126.56 85.167C126.539 81.239 125.789 74.0435 125.036 65.7704C124.654 61.5991 124.237 57.1846 123.938 52.77C123.817 51.0319 123.754 49.2939 123.688 47.5558C123.584 44.8792 123.504 42.2374 123.459 39.7346C123.258 28.6458 123.279 20.1292 123.279 20.1292Z" fill="#EE7A67"/>
<path fill-rule="evenodd" clip-rule="evenodd" d="M147.657 1.21818C147.646 0.557722 148.184 0.00154583 148.855 0.00154583C149.528 -0.0332152 150.081 0.523097 150.091 1.18356C150.091 1.18356 150.897 10.2216 151.591 21.8317C151.751 24.4736 151.876 27.2542 151.98 30.0698C152.046 31.9122 152.112 33.7546 152.119 35.597C152.143 40.2897 152.025 44.9823 151.893 49.3622C151.591 59.4776 151.091 67.7508 150.963 70.045C150.963 70.7055 150.417 71.2616 149.744 71.2616C149.073 71.2616 148.528 70.7055 148.528 70.045C148.4 67.7508 147.709 59.5125 147.15 49.4318C146.91 45.0519 146.67 40.3593 146.566 35.6666C146.528 33.8242 146.545 31.9818 146.559 30.1394C146.587 27.3238 146.639 24.5428 146.726 21.901C147.104 10.2908 147.657 1.21818 147.657 1.21818Z" fill="#EE7A67"/>
<path fill-rule="evenodd" clip-rule="evenodd" d="M38.4149 167.932C37.8593 167.55 37.7135 166.785 38.092 166.229C38.4705 165.673 39.2275 165.534 39.7831 165.916C39.7831 165.916 51.0657 173.077 59.4105 178.187C63.4665 180.655 66.769 182.671 67.5677 182.914C68.4949 183.227 77.2979 183.644 87.754 184.235C94.5395 184.652 102.002 185.069 108.538 185.521C111.5 185.73 114.271 185.938 116.702 186.112C112.757 183.436 107.802 180.064 102.856 176.692C91.9073 169.184 81.0136 161.64 81.0136 161.64C80.4511 161.258 80.2879 160.528 80.6525 159.937C81.0206 159.381 81.7742 159.207 82.3367 159.59C82.3367 159.59 93.6853 166.438 104.996 173.39C116.306 180.307 127.568 187.329 127.568 187.329C128.544 187.955 128.967 189.171 128.606 190.249C128.241 191.361 127.175 192.091 126.015 192.022C126.015 192.022 119.678 191.778 111.142 191.257C106.603 190.979 101.443 190.631 96.2828 190.214C88.6916 189.623 81.104 188.928 75.4922 188.337C70.2659 187.781 66.6613 187.294 66.071 187.051C65.2063 186.703 61.6295 184.374 57.3165 181.385C49.26 175.788 38.4149 167.932 38.4149 167.932Z" fill="#EE7A67"/>
<path fill-rule="evenodd" clip-rule="evenodd" d="M100.762 68.725C100.092 68.7598 99.5123 68.2732 99.4706 67.578C99.429 66.9175 99.9395 66.3265 100.61 66.2917L117.563 64.1019C118.379 64.0323 119.16 64.4146 119.636 65.0751C120.108 65.7356 120.206 66.6048 119.897 67.3695C119.897 67.3695 118.452 71.6102 116.195 77.311C115.386 79.3619 114.455 81.5866 113.448 83.846C112.024 87.0788 110.451 90.3812 108.961 93.4749C105.211 101.331 101.922 107.831 101.922 107.831C101.665 108.457 100.953 108.735 100.332 108.492C99.7102 108.214 99.4151 107.518 99.6721 106.893C99.6721 106.893 101.929 99.9751 104.812 91.7715C105.957 88.504 107.18 85.0627 108.44 81.7604C109.333 79.4662 110.239 77.2415 111.107 75.2254C112.205 72.6878 113.212 70.4631 113.986 68.7946L100.762 68.725Z" fill="#EE7A67"/>
<path fill-rule="evenodd" clip-rule="evenodd" d="M100.686 67.5077L117.712 66.4648L100.797 107.344C100.846 96.0814 100.867 79.7436 100.686 67.5077Z" fill="#EE7A67"/>
<path fill-rule="evenodd" clip-rule="evenodd" d="M157.064 100.74C156.724 100.392 156.248 99.9399 155.775 99.488C153.629 97.5414 150.108 94.5868 146.063 91.215C133.901 81.0647 116.976 67.4383 116.976 67.4383C116.441 67.0212 116.333 66.2564 116.74 65.7002C117.146 65.1788 117.91 65.0747 118.445 65.4918C118.445 65.4918 136.221 78.0754 148.886 87.6346C154.095 91.5626 158.425 95.0038 160.401 96.8114C161.405 97.7151 161.925 98.4452 162.082 98.7928C162.224 99.0709 162.377 99.5924 162.335 100.322C162.307 100.844 162.092 101.921 161.672 103.416C160.915 106.058 159.488 110.438 157.557 115.826C156.248 119.476 154.713 123.578 153.018 127.957C149.969 135.813 146.438 144.538 142.996 152.846C134.922 172.417 127.307 189.902 127.307 189.902C127.06 190.527 126.352 190.84 125.727 190.597C125.102 190.354 124.796 189.623 125.046 188.998C125.046 188.998 131.533 171.061 138.749 151.212C141.823 142.731 145.017 133.936 147.907 126.046C149.507 121.666 151.028 117.564 152.358 113.949C154.279 108.7 155.824 104.494 156.623 101.921C156.748 101.504 156.928 101.087 157.064 100.74ZM157.14 100.531C157.269 100.218 157.314 99.9748 157.151 99.9748C156.855 99.94 156.984 100.253 157.14 100.531Z" fill="#EE7A67"/>
<path fill-rule="evenodd" clip-rule="evenodd" d="M93.5531 131.051C92.9871 130.703 92.8274 129.939 93.192 129.383C93.5532 128.792 94.3102 128.653 94.8727 129C94.8727 129 100.596 131.885 107.781 135.918C109.416 136.821 111.111 137.795 112.83 138.838C113.931 139.498 115.045 140.193 116.129 140.889C118.903 142.731 121.595 144.712 124.074 146.52C130.696 151.386 135.693 155.419 135.693 155.419C136.26 155.766 136.423 156.531 136.055 157.087C135.694 157.678 134.936 157.817 134.374 157.469C134.374 157.469 128.658 154.55 121.501 150.517C118.817 148.988 115.934 147.354 113.115 145.581C112.014 144.886 110.944 144.121 109.888 143.391C108.239 142.244 106.645 141.132 105.138 139.985C98.5364 135.083 93.5531 131.051 93.5531 131.051Z" fill="#EE7A67"/>
<path fill-rule="evenodd" clip-rule="evenodd" d="M105.256 95.768C104.717 95.3856 104.61 94.6211 105.013 94.0649C105.415 93.5435 106.179 93.4391 106.718 93.8215C106.718 93.8215 112.92 97.6451 120.681 102.79C122.452 103.972 124.286 105.258 126.14 106.544C127.335 107.413 128.54 108.247 129.71 109.151C132.707 111.445 135.613 113.878 138.291 116.103C145.434 122.082 150.834 126.984 150.834 126.984C151.372 127.401 151.48 128.165 151.077 128.687C150.674 129.208 149.91 129.347 149.372 128.93C149.372 128.93 143.18 125.106 135.443 119.892C132.54 117.946 129.422 115.825 126.376 113.601C125.185 112.732 124.029 111.793 122.89 110.889C121.108 109.464 119.386 108.074 117.761 106.683C110.642 100.669 105.256 95.768 105.256 95.768Z" fill="#EE7A67"/>
<path fill-rule="evenodd" clip-rule="evenodd" d="M138.77 83.0473C139.013 82.4216 139.722 82.1088 140.347 82.3521C140.972 82.5954 141.281 83.2907 141.038 83.9164C141.038 83.9164 137.204 95.5961 131.995 110.404C130.804 113.811 129.516 117.356 128.182 120.937C127.321 123.266 126.453 125.595 125.529 127.924C123.171 133.833 120.688 139.708 118.368 145.13C112.205 159.556 107.117 170.749 107.117 170.749C106.874 171.375 106.169 171.688 105.541 171.445C104.915 171.201 104.606 170.506 104.853 169.846C104.853 169.846 108.704 158.166 113.951 143.392C115.924 137.831 118.077 131.852 120.358 125.873C121.251 123.544 122.199 121.25 123.133 118.955C124.588 115.41 126.043 111.934 127.46 108.631C133.665 94.2403 138.77 83.0473 138.77 83.0473Z" fill="#EE7A67"/>
<path fill-rule="evenodd" clip-rule="evenodd" d="M77.6277 157.817C78.0618 156.982 78.8779 155.21 79.9648 153.055C81.208 150.552 82.7464 147.527 84.3195 144.503C88.0386 137.377 91.8759 130.355 91.8759 130.355C92.1503 129.764 92.8691 129.487 93.4837 129.765C94.0949 130.043 94.3727 130.738 94.0984 131.364C94.0984 131.364 90.6362 141.062 87.3268 149.405C86.2816 152.012 85.2363 154.514 84.3473 156.496C83.1284 159.242 82.1353 161.154 81.8644 161.536C81.5658 161.953 80.9893 162.544 79.9162 162.857C78.8848 163.135 76.6867 163.378 73.8704 163.344C70.4499 163.309 66.0361 163.031 61.855 162.649C56.7329 162.162 52.0102 161.467 49.9023 160.945C49.2391 160.841 48.791 160.215 48.9022 159.555C49.0133 158.894 49.6384 158.443 50.3017 158.547C52.9617 158.825 59.7437 158.72 66.1229 158.512C70.1685 158.373 74.0231 158.164 76.5165 157.886C76.8707 157.817 77.2874 157.851 77.6277 157.817ZM77.6729 157.817C78.0584 157.817 78.3292 157.747 78.2667 157.574C78.1591 157.261 77.8952 157.504 77.6729 157.817ZM77.402 158.234C77.3777 158.269 77.3604 158.303 77.343 158.338C77.3604 158.303 77.3812 158.269 77.402 158.234Z" fill="#EE7A67"/>
<path fill-rule="evenodd" clip-rule="evenodd" d="M92.9871 130.877C92.9871 130.877 80.6766 158.408 79.6036 159.937C78.5305 161.432 55.5417 160.667 50.1001 159.764C65.5081 149.613 84.4652 136.682 92.9871 130.877Z" fill="#EE7A67"/>
<path fill-rule="evenodd" clip-rule="evenodd" d="M59.0455 161.536C58.5003 161.119 58.3718 160.389 58.7642 159.833C59.1532 159.277 59.9136 159.138 60.4623 159.555C60.4623 159.555 65.8033 162.544 72.495 166.681C74.0195 167.62 75.5926 168.628 77.1865 169.671C78.2109 170.366 79.2423 171.061 80.2459 171.791C82.8087 173.668 85.2812 175.649 87.5628 177.526C93.6468 182.497 98.2168 186.564 98.2168 186.564C98.762 186.981 98.8905 187.712 98.4981 188.268C98.1092 188.824 97.3451 188.963 96.7999 188.546C96.7999 188.546 91.466 185.556 84.802 181.385C82.3052 179.821 79.6243 178.117 77.0163 176.31C75.9954 175.615 75.0092 174.85 74.0334 174.085C72.5159 172.938 71.0469 171.756 69.6648 170.609C63.5981 165.638 59.0455 161.536 59.0455 161.536Z" fill="#EE7A67"/>
<path fill-rule="evenodd" clip-rule="evenodd" d="M45.1728 163.553C44.6137 163.205 44.4609 162.441 44.8325 161.885C45.204 161.328 45.961 161.155 46.5201 161.537C46.5201 161.537 50.9304 163.657 56.4623 166.681C57.7194 167.377 59.0112 168.142 60.3238 168.906C61.1642 169.428 62.015 169.949 62.8311 170.505C64.9285 171.965 66.9358 173.495 68.7867 174.955C73.7456 178.848 77.4196 182.081 77.4196 182.081C77.9787 182.463 78.1315 183.228 77.7599 183.784C77.3884 184.34 76.6313 184.479 76.0722 184.097C76.0722 184.097 71.669 181.976 66.1614 178.917C64.1056 177.77 61.9005 176.519 59.7578 175.129C58.9244 174.607 58.1188 174.016 57.3235 173.425C56.0838 172.556 54.8927 171.652 53.771 170.749C48.8329 166.821 45.1728 163.553 45.1728 163.553Z" fill="#EE7A67"/>
<path fill-rule="evenodd" clip-rule="evenodd" d="M47.7838 174.052C47.1136 173.982 46.6031 173.426 46.6483 172.731C46.6934 172.07 47.2734 171.549 47.9436 171.618C47.9436 171.618 54.4999 171.375 62.9175 171.375C64.8379 171.375 66.8451 171.445 68.8939 171.514C70.2101 171.549 71.5401 171.584 72.8702 171.688C76.2664 171.966 79.6452 172.383 82.7706 172.765C91.1153 173.808 97.5883 174.921 97.5883 174.921C98.2585 174.955 98.769 175.546 98.7238 176.207C98.6787 176.867 98.0988 177.389 97.4285 177.354C97.4285 177.354 90.8687 177.563 82.4581 177.493C79.3049 177.493 75.9052 177.424 72.502 177.25C71.172 177.18 69.8454 177.041 68.5362 176.902C66.4943 176.728 64.4976 176.485 62.5946 176.242C54.2499 175.164 47.7838 174.052 47.7838 174.052Z" fill="#EE7A67"/>
<path fill-rule="evenodd" clip-rule="evenodd" d="M164.176 217.051C164.176 217.051 129.009 229.53 108.767 236.795C101.301 239.507 95.8834 241.453 95.102 241.801C94.7582 241.94 93.7373 242.114 92.1294 241.905C89.202 241.592 83.177 240.41 75.5754 238.777C63.1573 236.1 46.4748 232.207 32.2718 228.8C17.3777 225.22 5.22346 222.196 3.58784 221.813C1.9731 221.466 1.45227 220.423 1.25085 219.728C1.0286 218.998 0.993843 217.955 1.91062 216.912C2.17107 216.634 2.68846 216.182 3.52536 215.765C4.35876 215.348 5.69922 214.791 7.42512 214.131C19.5481 209.716 51.9616 200.887 54.7119 200.574C56.2225 200.4 65.4284 200.261 75.7421 200.192C89.4416 200.088 105.11 200.088 106.951 200.122C108.093 200.122 115.413 201.86 124.487 204.189C141.215 208.5 164.086 214.722 164.086 214.722C164.61 214.861 164.978 215.313 164.999 215.869C165.02 216.39 164.683 216.877 164.176 217.051ZM12.3528 218.268C16.8707 219.38 23.0311 220.909 29.9694 222.647C41.7104 225.602 55.6738 229.113 67.6335 231.998C78.3501 234.605 87.4379 236.726 91.8238 237.421C92.4037 237.525 93.0184 237.734 93.4143 237.803C93.5219 237.734 93.7754 237.525 93.8275 237.63C96.4494 236.691 108.256 232.763 121.442 228.418C135.878 223.69 151.966 218.442 159.321 216.078C151.928 214.27 136.1 210.446 123.661 207.561C115 205.58 108.034 204.016 106.951 204.016C104.874 204.05 85.1911 204.502 70.6304 204.919C62.8239 205.128 56.5107 205.336 55.3022 205.51C52.8262 205.823 25.7571 213.61 12.3528 218.268ZM93.8275 237.63C93.6435 237.699 93.5081 237.769 93.4143 237.803C93.6782 237.838 93.8449 237.803 93.8345 237.664C93.8345 237.664 93.831 237.63 93.8275 237.63ZM93.4143 237.803C93.4039 237.803 93.3969 237.803 93.39 237.803C93.3969 237.803 93.4073 237.803 93.4143 237.803Z" fill="#EE7A67"/>
<path fill-rule="evenodd" clip-rule="evenodd" d="M163.783 215.903C163.783 215.903 97.1785 238.533 94.2441 239.784C91.3132 241.07 8.64729 220.075 4.17801 219.101C-0.287763 218.128 51.5169 203.459 55.0069 203.042C58.4969 202.624 103.738 202.068 106.95 202.068C110.163 202.068 163.783 215.903 163.783 215.903Z" fill="#EE7A67"/>
</svg>
