<svg width="40" height="40" viewBox="0 0 40 40" fill="none" xmlns="http://www.w3.org/2000/svg">
<path d="M10.2993 15.7687C11.116 13.3186 13.4088 11.666 15.9914 11.666H24.0089C26.5915 11.666 28.8844 13.3186 29.701 15.7686L34.0344 28.7686C35.3294 32.6538 32.4376 36.666 28.3423 36.666H11.6581C7.56271 36.666 4.67089 32.6538 5.96595 28.7686L10.2993 15.7687Z" stroke="#EE7A67" stroke-width="2" stroke-linecap="round" stroke-linejoin="round"/>
<path d="M23.4766 11.6673L16.5237 11.6673L14.1885 8.98891C11.8995 6.36336 14.5699 2.43894 17.9119 3.51706L19.4582 4.01589C19.8103 4.12946 20.19 4.12946 20.5421 4.01589L22.0884 3.51706C25.4304 2.43895 28.1008 6.36336 25.8118 8.98892L23.4766 11.6673Z" stroke="#EE7A67" stroke-width="2" stroke-linecap="round" stroke-linejoin="round"/>
<path d="M15 28.334C18.7573 30.5252 20.9631 30.5747 25 28.334" stroke="#EE7A67" stroke-width="2" stroke-linecap="round" stroke-linejoin="round"/>
</svg>
