<svg width="165" height="28" viewBox="0 0 165 28" fill="none" xmlns="http://www.w3.org/2000/svg">
<path d="M45.7751 9.2276V13.5675H42.6886V18.8993C42.6886 19.4833 42.9193 19.8593 43.3767 20.0313C43.8341 20.2033 44.6336 20.2553 45.7751 20.1953V24.2952C42.9392 24.5952 40.9625 24.3272 39.8409 23.4832C38.7431 22.6192 38.1942 21.0913 38.1942 18.9033V13.5715H35.7959V9.2316H38.1942V6.36768L42.6886 5.01172V9.2316H45.7751V9.2276Z" fill="white"/>
<path d="M57.8025 10.6426V9.22663H62.2969V24.2942H57.8025V22.8782C56.7644 24.1022 55.2769 24.7182 53.336 24.7182C51.395 24.7182 49.6689 23.9542 48.2728 22.4262C46.8728 20.8983 46.1768 19.0103 46.1768 16.7624C46.1768 14.5145 46.8768 12.6545 48.2728 11.1266C49.6927 9.57862 51.3791 8.80664 53.336 8.80664C55.2928 8.80664 56.7605 9.41862 57.8025 10.6466V10.6426ZM50.6672 16.7624C50.6672 17.8864 50.9973 18.7824 51.6575 19.4463C52.3178 20.1103 53.1769 20.4423 54.2349 20.4423C55.2928 20.4423 56.1519 20.1103 56.8122 19.4463C57.4724 18.7824 57.8025 17.8904 57.8025 16.7624C57.8025 15.6344 57.4724 14.7425 56.8122 14.0785C56.1519 13.4145 55.2928 13.0825 54.2349 13.0825C53.1769 13.0825 52.3178 13.4145 51.6575 14.0785C50.9973 14.7425 50.6672 15.6344 50.6672 16.7624Z" fill="white"/>
<path d="M73.358 16.6442L78.7234 24.3H73.5688L70.7806 20.3241L67.9925 24.3H62.8379L68.2033 16.6442L63.0209 9.23242H68.1755L70.7806 12.9683L73.3858 9.23242H78.5404L73.358 16.6442Z" fill="white"/>
<path d="M88.0505 16.7628L93.6545 24.2946H88.5595L83.7669 17.6348V24.2946H79.2725V3.19922H83.7669V15.8269L88.2612 9.22704H93.5034L88.0505 16.7588V16.7628Z" fill="white" fill-opacity="0.7"/>
<path d="M106.127 22.4262C104.608 23.9542 102.731 24.7182 100.495 24.7182C98.2602 24.7182 96.3789 23.9542 94.8635 22.4262C93.3243 20.8783 92.5566 18.9903 92.5566 16.7624C92.5566 14.5345 93.3243 12.6745 94.8635 11.1266C96.4027 9.57862 98.28 8.80664 100.495 8.80664C102.711 8.80664 104.592 9.57862 106.127 11.1266C107.667 12.6745 108.434 14.5505 108.434 16.7624C108.434 18.9743 107.667 20.8823 106.127 22.4262ZM97.0471 16.7624C97.0471 17.8064 97.3772 18.6624 98.0374 19.3223C98.6977 19.9823 99.517 20.3183 100.495 20.3183C101.474 20.3183 102.293 19.9863 102.953 19.3223C103.614 18.6584 103.944 17.8064 103.944 16.7624C103.944 15.7184 103.614 14.8625 102.953 14.2025C102.293 13.5425 101.474 13.2065 100.495 13.2065C99.517 13.2065 98.6977 13.5385 98.0374 14.2025C97.3772 14.8665 97.0471 15.7184 97.0471 16.7624Z" fill="white" fill-opacity="0.7"/>
<path d="M126.663 8.80664C128.361 8.80664 129.737 9.37862 130.799 10.5226C131.837 11.6266 132.358 13.1345 132.358 15.0425V24.2942H127.864V15.4344C127.864 14.6505 127.677 14.0425 127.311 13.6105C126.941 13.1785 126.408 12.9625 125.708 12.9625C124.968 12.9625 124.395 13.2145 123.986 13.7145C123.576 14.2185 123.373 14.9105 123.373 15.7944V24.2942H118.879V15.4344C118.879 14.6505 118.696 14.0425 118.326 13.6105C117.956 13.1785 117.423 12.9625 116.723 12.9625C115.983 12.9625 115.411 13.2145 115.001 13.7145C114.591 14.2185 114.388 14.9105 114.388 15.7944V24.2942H109.894V9.22663H114.388V10.6146C115.208 9.41062 116.544 8.80664 118.406 8.80664C120.144 8.80664 121.452 9.47062 122.331 10.7946C123.25 9.46662 124.698 8.80664 126.674 8.80664H126.663Z" fill="white" fill-opacity="0.7"/>
<path d="M148.991 18.5704H138.352C138.849 19.9783 140.05 20.6783 141.947 20.6783C143.164 20.6783 144.123 20.2983 144.823 19.5343L148.418 21.6143C146.959 23.6822 144.783 24.7182 141.888 24.7182C139.39 24.7182 137.373 23.9662 135.834 22.4582C134.335 20.9503 133.587 19.0543 133.587 16.7624C133.587 14.4705 134.327 12.6225 135.806 11.0986C137.306 9.57062 139.223 8.80664 141.558 8.80664C143.733 8.80664 145.543 9.57062 146.983 11.0986C148.442 12.5865 149.17 14.4745 149.17 16.7624C149.17 17.4064 149.11 18.0104 148.991 18.5704ZM138.264 15.1945H144.708C144.266 13.6065 143.208 12.8145 141.53 12.8145C139.851 12.8145 138.702 13.6105 138.264 15.1945Z" fill="white" fill-opacity="0.7"/>
<path d="M159.396 16.7628L165 24.2946H159.905L155.113 17.6348V24.2946H150.618V3.19922H155.113V15.8269L159.607 9.22704H164.849L159.396 16.7588V16.7628Z" fill="white" fill-opacity="0.7"/>
<path d="M26.9113 12.3613H15.4055C14.8933 12.3613 14.4785 12.763 14.4785 13.2591V27.9983C21.8586 27.9983 27.8411 22.2046 27.8411 15.0574V13.2591C27.8411 12.763 27.4263 12.3613 26.9141 12.3613H26.9113Z" fill="white" fill-opacity="0.7"/>
<path d="M22.3724 11.1478C25.2155 10.498 26.9763 7.73905 26.3053 4.98564C25.6342 2.23223 22.7855 0.526968 19.9423 1.17683C17.0992 1.8267 15.3384 4.5856 16.0095 7.33901C16.6805 10.0924 19.5293 11.7977 22.3724 11.1478Z" fill="white" fill-opacity="0.7"/>
<path d="M12.4356 12.3633H0.927029C0.414797 12.3633 0 12.765 0 13.2611V15.0593C0 22.2065 5.98254 28.0003 13.3626 28.0003V13.2611C13.3626 12.765 12.9478 12.3633 12.4356 12.3633Z" fill="white"/>
<path d="M6.68096 11.284C9.60219 11.284 11.9703 8.99059 11.9703 6.16153C11.9703 3.33247 9.60219 1.03906 6.68096 1.03906C3.75973 1.03906 1.3916 3.33247 1.3916 6.16153C1.3916 8.99059 3.75973 11.284 6.68096 11.284Z" fill="white"/>
</svg>
